<svg width="26" height="68" viewBox="0 0 26 68" fill="none" xmlns="http://www.w3.org/2000/svg">
<path d="M0 68H17.3636C23.0909 68 26 64.5269 26 57.672V39.0269C26 33.543 22.4545 31.5323 20.6364 31.0753C22.0909 30.6183 25.0909 28.5161 25.0909 23.9462V8.5914C25.0909 2.37634 22.0909 0 17.4545 0H0V68ZM12.3636 8.5914C13.5455 8.5914 13.7273 9.04838 13.7273 10.2366V26.2312C13.7273 27.4193 13.2727 27.9677 12.3636 27.9677H11.5455V8.5914H12.3636ZM12.6364 36.3763C13.7273 36.3763 14 36.8333 14 38.2043V57.3978C14 58.586 13.8182 59.1344 12.6364 59.1344H11.5455V36.3763H12.6364Z" fill="black"/>
</svg>
