<svg width="683" height="4169" viewBox="0 0 683 4169" fill="none" xmlns="http://www.w3.org/2000/svg">
<path d="M13.812 -0.000115738L13.8119 723.996C13.8118 940.576 103.096 1012.18 206.524 1012.18L213.596 1012.18C330.284 1012.18 373.6 927.316 387.744 842.452C401.888 908.752 444.32 973.284 518.576 973.284L523.88 973.284C597.252 973.284 671.508 923.78 671.508 723.996L671.508 2.80059e-05L13.812 -0.000115738ZM500.896 571.064C500.896 612.612 495.592 630.292 470.84 630.292L469.072 630.292C445.204 630.292 437.248 612.612 437.248 571.064L437.248 335.92L500.896 335.92L500.896 571.064ZM271.94 584.324C271.94 641.784 258.68 655.044 233.928 655.044L232.16 655.044C207.408 655.044 190.612 641.784 190.612 584.324L190.612 335.92L271.94 335.92L271.94 584.324Z" fill="#E9E9E9"/>
<path d="M671.508 1042.84L13.8118 1042.84L13.8116 1839.33L199.452 1839.33L199.452 1373.46L256.028 1373.46L256.028 1830.49L436.364 1830.49L436.364 1373.46L487.636 1373.46L487.636 1835.79L671.508 1835.79L671.508 1042.84Z" fill="#E9E9E9"/>
<path d="M671.508 1887.13L13.8116 1887.13L13.8114 2683.62L199.451 2683.62L199.452 2217.75L256.027 2217.75L256.027 2674.78L436.363 2674.78L436.363 2217.75L487.636 2217.75L487.635 2680.08L671.507 2680.08L671.508 1887.13Z" fill="#E9E9E9"/>
<path d="M408.959 3067.34L492.055 3067.34L492.055 3312.21C492.055 3357.29 475.259 3373.21 450.507 3373.21C426.639 3373.21 408.959 3358.18 408.959 3312.21L408.959 3067.34ZM224.203 3067.34L224.203 3254.75C224.203 3349.34 180.887 3382.05 113.703 3382.05L34.1433 3382.05C24.4193 3382.05 18.2313 3382.05 13.8113 3386.47L13.8112 3732.11L19.1152 3732.11C32.3752 3725.04 47.4031 3720.62 80.1111 3720.62L180.003 3720.62C265.751 3720.62 324.979 3670.23 345.311 3565.03C357.687 3625.15 399.235 3717.08 497.359 3717.08L505.315 3717.08C636.147 3717.08 671.507 3599.51 671.507 3458.07L671.507 2731.42L13.8114 2731.42L13.8113 3067.34L224.203 3067.34Z" fill="#E9E9E9"/>
<path d="M0.551064 4292.5C0.550982 4666.43 113.703 4741.57 230.391 4741.57L242.767 4741.57C376.251 4741.57 438.131 4651.4 445.203 4395.04L448.739 4262.44C451.391 4160.78 464.651 4135.15 488.519 4135.15L490.287 4135.15C512.387 4135.15 524.763 4150.17 524.763 4230.62C524.763 4318.13 492.939 4328.74 471.723 4331.39L471.723 4716.82L476.143 4716.82C589.295 4716.82 682.999 4634.61 682.999 4281.89L682.999 4169.62C682.999 3851.38 606.975 3752.37 483.215 3752.37L475.259 3752.37C371.831 3752.37 276.359 3808.95 266.635 4079.45L262.215 4218.24C257.795 4331.39 237.463 4340.23 215.363 4340.23L212.711 4340.23C188.843 4340.23 166.743 4317.25 166.743 4239.46C166.743 4147.52 209.175 4135.14 237.463 4135.14L237.463 3741.76L230.391 3741.76C145.527 3741.76 0.551176 3778.01 0.551089 4176.69L0.551064 4292.5Z" fill="#E9E9E9"/>
</svg>
